<svg width="24" height="24" viewBox="0 0 24 24" fill="none" xmlns="http://www.w3.org/2000/svg">
<g clip-path="url(#clip0_2793_29500)">
<path d="M5.86939 15.5831C4.81473 14.6089 4.01028 13.3949 3.52411 12.044C3.03794 10.6931 2.88437 9.2449 3.07639 7.82205C3.26626 6.37931 3.80313 5.00413 4.64098 3.81436C5.47884 2.6246 6.59269 1.65574 7.88707 0.990821C9.18145 0.325905 10.6178 -0.015236 12.0729 -0.00336245C13.528 0.00851106 14.9586 0.373045 16.2419 1.059C17.5253 1.74495 18.6232 2.73185 19.4415 3.93513C20.2598 5.13841 20.7742 6.52217 20.9405 7.96782C21.1068 9.41346 20.9201 10.8779 20.3963 12.2355C19.8726 13.5932 19.0275 14.8036 17.9334 15.7631C17.2289 16.3687 16.6819 17.1364 16.3394 18.0001H13.0014V10.8161C13.5843 10.61 14.0893 10.2288 14.4473 9.72475C14.8053 9.22068 14.9988 8.61831 15.0014 8.00005C15.0014 7.73483 14.896 7.48048 14.7085 7.29294C14.521 7.10541 14.2666 7.00005 14.0014 7.00005C13.7362 7.00005 13.4818 7.10541 13.2943 7.29294C13.1068 7.48048 13.0014 7.73483 13.0014 8.00005C13.0014 8.26527 12.896 8.51962 12.7085 8.70716C12.521 8.89469 12.2666 9.00005 12.0014 9.00005C11.7362 9.00005 11.4818 8.89469 11.2943 8.70716C11.1068 8.51962 11.0014 8.26527 11.0014 8.00005C11.0014 7.73483 10.896 7.48048 10.7085 7.29294C10.521 7.10541 10.2666 7.00005 10.0014 7.00005C9.73618 7.00005 9.48182 7.10541 9.29429 7.29294C9.10675 7.48048 9.00139 7.73483 9.00139 8.00005C9.00396 8.61831 9.19748 9.22068 9.55548 9.72475C9.91348 10.2288 10.4185 10.61 11.0014 10.8161V18.0001H7.56439C7.18209 17.0806 6.60362 16.2557 5.86939 15.5831ZM8.00139 20.0001V20.3101C8.00245 21.2884 8.39156 22.2263 9.08334 22.9181C9.77512 23.6099 10.7131 23.999 11.6914 24.0001H12.3114C13.2897 23.999 14.2277 23.6099 14.9194 22.9181C15.6112 22.2263 16.0003 21.2884 16.0014 20.3101V20.0001H8.00139Z" fill="#374957"/>
</g>
<defs>
<clipPath id="clip0_2793_29500">
<rect width="24" height="24" fill="white"/>
</clipPath>
</defs>
</svg>
