<svg width="380" height="380" viewBox="0 0 380 380" fill="none" xmlns="http://www.w3.org/2000/svg">
<mask id="path-1-inside-1_4514_4178" fill="white">
<path d="M0 5.00001C0 2.23858 2.23858 0 5 0H104.492C107.253 0 109.492 2.23858 109.492 5V104.492C109.492 107.253 107.253 109.492 104.492 109.492H5.00001C2.23858 109.492 0 107.253 0 104.492V5.00001Z"/>
</mask>
<path d="M-5 5C-5 -0.522847 -0.522847 -5 5 -5H99.4915C105.014 -5 109.492 -0.522847 109.492 5C109.492 5 107.253 5 104.492 5H5H-5ZM109.492 109.492H0H109.492ZM5 109.492C-0.522847 109.492 -5 105.014 -5 99.4915V5C-5 -0.522847 -0.522847 -5 5 -5V5V104.492C5 107.253 5 109.492 5 109.492ZM109.492 0V109.492V0Z" fill="#595959" mask="url(#path-1-inside-1_4514_4178)"/>
<mask id="path-3-inside-2_4514_4178" fill="white">
<path d="M380 5.00001C380 2.23858 377.761 0 375 0H275.508C272.747 0 270.508 2.23858 270.508 5V104.492C270.508 107.253 272.747 109.492 275.508 109.492H375C377.761 109.492 380 107.253 380 104.492V5.00001Z"/>
</mask>
<path d="M385 5C385 -0.522847 380.523 -5 375 -5H280.508C274.986 -5 270.508 -0.522847 270.508 5C270.508 5 272.747 5 275.508 5H375H385ZM270.508 109.492H380H270.508ZM375 109.492C380.523 109.492 385 105.014 385 99.4915V5C385 -0.522847 380.523 -5 375 -5V5V104.492C375 107.253 375 109.492 375 109.492ZM270.508 0V109.492V0Z" fill="#595959" mask="url(#path-3-inside-2_4514_4178)"/>
<mask id="path-5-inside-3_4514_4178" fill="white">
<path d="M0 375C0 377.761 2.23858 380 5 380H104.492C107.253 380 109.492 377.761 109.492 375V275.508C109.492 272.747 107.253 270.508 104.492 270.508H5.00001C2.23858 270.508 0 272.747 0 275.508V375Z"/>
</mask>
<path d="M-5 375C-5 380.523 -0.522847 385 5 385H99.4915C105.014 385 109.492 380.523 109.492 375C109.492 375 107.253 375 104.492 375H5H-5ZM109.492 270.508H0H109.492ZM5 270.508C-0.522847 270.508 -5 274.986 -5 280.508V375C-5 380.523 -0.522847 385 5 385V375V275.508C5 272.747 5 270.508 5 270.508ZM109.492 380V270.508V380Z" fill="#595959" mask="url(#path-5-inside-3_4514_4178)"/>
<mask id="path-7-inside-4_4514_4178" fill="white">
<path d="M380 375C380 377.761 377.761 380 375 380H275.508C272.747 380 270.508 377.761 270.508 375V275.508C270.508 272.747 272.747 270.508 275.508 270.508H375C377.761 270.508 380 272.747 380 275.508V375Z"/>
</mask>
<path d="M385 375C385 380.523 380.523 385 375 385H280.508C274.986 385 270.508 380.523 270.508 375C270.508 375 272.747 375 275.508 375H375H385ZM270.508 270.508H380H270.508ZM375 270.508C380.523 270.508 385 274.986 385 280.508V375C385 380.523 380.523 385 375 385V375V275.508C375 272.747 375 270.508 375 270.508ZM270.508 380V270.508V380Z" fill="#595959" mask="url(#path-7-inside-4_4514_4178)"/>
<rect width="370" height="371" transform="translate(5 4)" fill="#5D6071" fill-opacity="0.2"/>
</svg>
