<svg width="191" height="75" viewBox="0 0 191 75" fill="none" xmlns="http://www.w3.org/2000/svg">
<path d="M20.7471 39.5002C8.78778 41.2917 10.9195 41.5002 0 36.6609L1.09195 74.8395H190V34.3394C179.706 22.4284 182.438 5.94312 166.523 1.50015C148.779 -3.45328 126.915 12.0099 108.649 15.0002C87.4905 18.464 84.9092 7.49675 63.8793 11.5002C45.4939 15.0002 39.4565 36.6974 20.7471 39.5002Z" fill="url(#paint0_linear_3147_7748)"/>
<path d="M1.0918 52.3393C10.9046 58.8164 19.3358 60.6309 31.2951 58.8393C50.0045 56.0365 47.3236 33.5501 64.7933 26.8393C84.6008 19.2305 98.5496 33.8031 119.708 30.3393C137.974 27.3491 145.897 8.88586 163.641 13.8393C179.556 18.2823 179.706 32.4283 190 44.3393" stroke="#478F96"/>
<defs>
<linearGradient id="paint0_linear_3147_7748" x1="95.546" y1="14.5001" x2="95.546" y2="74.8395" gradientUnits="userSpaceOnUse">
<stop stop-color="#D0FBFF"/>
<stop offset="1" stop-color="#DDF2F4" stop-opacity="0"/>
</linearGradient>
</defs>
</svg>
